<mxfile host="app.diagrams.net" modified="2022-09-28T14:44:47.035Z" agent="5.0 (Macintosh; Intel Mac OS X 10_13_6) AppleWebKit/537.36 (KHTML, like Gecko) Chrome/105.0.0.0 Safari/537.36" etag="4IjgLK1Un1YLx3jPgV7N" version="20.3.7" type="github">
  <diagram id="YERw00JHWztzT1zqR6uC" name="第 1 页">
    <mxGraphModel dx="885" dy="591" grid="1" gridSize="10" guides="1" tooltips="1" connect="1" arrows="1" fold="1" page="1" pageScale="1" pageWidth="827" pageHeight="1169" math="0" shadow="0">
      <root>
        <mxCell id="0" />
        <mxCell id="1" parent="0" />
        <mxCell id="eZtkJofYsXOryF9AxlQ_-2" value="&lt;font style=&quot;font-size: 24px;&quot;&gt;&lt;font face=&quot;Comic Sans MS&quot;&gt;Tracing&lt;/font&gt;&lt;br&gt;&lt;/font&gt;" style="ellipse;whiteSpace=wrap;html=1;aspect=fixed;fillColor=#60a917;strokeColor=#2D7600;opacity=50;fontColor=#ffffff;" vertex="1" parent="1">
          <mxGeometry x="140" y="100" width="250" height="250" as="geometry" />
        </mxCell>
        <mxCell id="eZtkJofYsXOryF9AxlQ_-5" value="&lt;font style=&quot;font-size: 24px;&quot; face=&quot;Comic Sans MS&quot;&gt;Metrics&lt;/font&gt;" style="ellipse;whiteSpace=wrap;html=1;aspect=fixed;fillColor=#fa6800;strokeColor=#C73500;opacity=50;fontColor=#000000;" vertex="1" parent="1">
          <mxGeometry x="320" y="100" width="250" height="250" as="geometry" />
        </mxCell>
        <mxCell id="eZtkJofYsXOryF9AxlQ_-6" value="&lt;font style=&quot;font-size: 24px;&quot; face=&quot;Comic Sans MS&quot;&gt;Logging&lt;/font&gt;" style="ellipse;whiteSpace=wrap;html=1;aspect=fixed;fillColor=#1ba1e2;strokeColor=#006EAF;opacity=50;fontColor=#ffffff;" vertex="1" parent="1">
          <mxGeometry x="230" y="260" width="250" height="250" as="geometry" />
        </mxCell>
      </root>
    </mxGraphModel>
  </diagram>
</mxfile>
